<?xml version="1.0" standalone="no"?>
<!DOCTYPE svg PUBLIC "-//W3C//DTD SVG 20010904//EN"
 "http://www.w3.org/TR/2001/REC-SVG-20010904/DTD/svg10.dtd">
<svg version="1.0" xmlns="http://www.w3.org/2000/svg"
 width="2000.000000pt" height="2000.000000pt" viewBox="0 0 2000.000000 2000.000000"
 preserveAspectRatio="xMidYMid meet">
<metadata>
Created by potrace 1.14, written by Peter Selinger 2001-2017
</metadata>
<g transform="translate(0.000000,2000.000000) scale(0.100000,-0.100000)"
fill="#000000" stroke="none">
<path d="M9757 17733 c-1 0 -63 -4 -137 -8 -184 -9 -333 -20 -415 -30 -16 -2
-57 -7 -90 -10 -33 -3 -71 -8 -85 -10 -14 -2 -47 -6 -75 -10 -93 -12 -120 -16
-240 -36 -66 -11 -154 -27 -195 -35 -41 -9 -88 -18 -105 -21 -35 -5 -344 -78
-395 -93 -19 -6 -91 -26 -160 -45 -293 -83 -713 -233 -939 -336 -35 -16 -87
-39 -115 -51 -194 -83 -595 -297 -880 -471 -241 -147 -694 -474 -871 -628 -16
-15 -68 -59 -115 -99 -259 -220 -579 -542 -820 -825 -125 -147 -106 -124 -253
-310 -139 -178 -340 -471 -476 -696 -45 -74 -86 -141 -91 -149 -5 -8 -18 -31
-28 -50 -11 -19 -36 -64 -56 -100 -46 -82 -243 -476 -275 -550 -99 -231 -124
-291 -171 -415 -61 -163 -143 -405 -188 -555 -34 -114 -113 -412 -117 -445 -2
-11 -15 -72 -29 -135 -14 -63 -27 -126 -30 -140 -2 -14 -11 -63 -20 -110 -8
-47 -18 -98 -20 -115 -2 -16 -7 -50 -11 -75 -7 -46 -12 -78 -19 -127 -6 -34
-13 -99 -21 -178 -4 -33 -8 -71 -10 -85 -2 -14 -7 -65 -11 -115 -3 -49 -8
-101 -9 -115 -23 -185 -22 -911 0 -1120 2 -19 6 -73 10 -120 3 -47 8 -98 10
-115 2 -16 6 -55 9 -85 6 -60 13 -114 22 -173 3 -20 7 -47 9 -60 11 -88 17
-124 20 -137 2 -8 7 -35 10 -60 3 -25 8 -52 10 -60 2 -8 7 -31 10 -50 11 -66
36 -185 55 -265 10 -44 21 -91 24 -105 46 -241 229 -812 368 -1150 146 -353
332 -721 527 -1045 125 -209 435 -662 515 -752 6 -7 19 -23 28 -35 186 -244
527 -617 799 -873 817 -768 1825 -1365 2889 -1710 152 -49 332 -103 370 -110
14 -3 36 -9 50 -14 14 -5 86 -24 160 -41 74 -17 153 -35 175 -40 52 -12 230
-48 275 -55 19 -3 46 -7 60 -10 35 -7 78 -13 125 -20 22 -3 71 -10 108 -16 71
-11 78 -12 187 -23 36 -4 79 -8 95 -11 17 -2 68 -7 115 -10 47 -4 103 -8 125
-10 250 -23 847 -24 1110 -1 22 2 80 7 129 11 49 4 96 8 105 10 9 1 48 6 86 9
39 4 81 9 95 11 14 2 48 6 75 10 96 13 120 16 175 25 30 5 73 12 95 16 22 3
85 15 140 26 55 11 114 22 130 24 17 3 48 10 70 16 22 5 51 12 65 15 35 6 79
17 195 48 55 14 109 28 120 30 51 11 436 129 470 144 11 5 56 21 100 36 104
36 326 123 440 172 50 22 110 48 135 59 91 39 459 224 574 289 318 179 737
453 945 620 21 17 53 41 71 55 34 25 86 66 106 85 7 5 20 17 30 25 257 209
535 472 769 725 55 60 107 116 115 124 8 9 38 43 65 76 28 33 56 67 64 75 37
38 255 317 338 431 110 153 287 418 368 554 33 55 65 109 72 120 7 11 15 26
19 34 4 8 31 56 59 106 245 433 514 1080 651 1565 19 69 42 148 49 175 20 69
53 203 60 244 3 19 8 37 10 41 2 4 7 21 10 38 3 18 12 60 20 94 7 35 21 104
29 153 9 50 18 101 21 115 2 14 7 41 9 60 3 19 9 64 15 100 18 109 28 183 36
265 3 33 8 74 10 90 2 17 7 71 10 120 4 50 9 101 11 115 21 167 21 1004 0
1118 -2 9 -7 60 -11 112 -3 52 -8 109 -10 125 -2 17 -6 55 -9 85 -7 62 -9 81
-31 235 -14 101 -38 243 -50 305 -3 14 -10 50 -16 80 -17 91 -19 102 -40 195
-57 261 -147 576 -239 840 -36 105 -99 275 -110 300 -5 11 -39 92 -75 180 -95
229 -343 729 -415 835 -6 8 -13 22 -17 30 -46 103 -521 808 -572 850 -3 3 -28
34 -56 70 -46 61 -201 249 -214 260 -3 3 -21 23 -40 45 -307 363 -822 832
-1266 1155 -185 134 -590 398 -665 433 -8 4 -29 16 -45 26 -235 143 -748 386
-1075 509 -278 105 -610 211 -805 258 -5 1 -46 11 -90 22 -44 12 -95 24 -114
27 -19 3 -37 8 -41 10 -4 2 -22 7 -41 10 -19 3 -63 12 -99 20 -36 8 -78 17
-95 20 -16 3 -79 14 -140 25 -93 16 -202 33 -360 55 -144 19 -389 40 -605 51
-109 5 -609 12 -613 7z"/>
<path d="M9088 1655 c-2 -2 -109 -6 -238 -9 -129 -4 -280 -8 -335 -11 -55 -2
-161 -7 -236 -10 -74 -3 -169 -7 -210 -10 -40 -2 -121 -7 -179 -10 -222 -12
-245 -14 -460 -31 -90 -7 -180 -15 -210 -19 -14 -2 -60 -6 -103 -10 -43 -3
-86 -8 -95 -10 -9 -1 -44 -6 -77 -9 -33 -4 -71 -9 -85 -11 -14 -2 -47 -6 -75
-10 -27 -3 -63 -8 -80 -11 -16 -3 -42 -7 -57 -9 -74 -13 -96 -17 -176 -36
-184 -42 -259 -86 -229 -133 29 -44 138 -81 352 -120 72 -13 153 -27 180 -31
28 -3 64 -8 80 -10 40 -5 112 -14 258 -30 39 -4 94 -9 207 -20 25 -2 81 -7
125 -10 44 -3 103 -7 130 -10 28 -2 95 -7 150 -10 55 -3 123 -8 150 -10 28 -3
109 -7 180 -10 72 -3 177 -8 234 -11 58 -3 157 -7 222 -9 64 -2 216 -7 336
-12 464 -16 2216 -8 2648 12 44 2 143 7 220 10 284 12 516 25 705 40 30 2 91
7 135 10 87 6 155 13 225 20 25 3 70 8 100 10 30 3 75 7 100 10 25 3 65 8 90
10 25 3 56 7 70 10 14 2 50 7 80 10 89 10 311 53 385 75 97 30 133 47 151 76
16 23 15 26 -2 45 -10 11 -36 28 -58 38 -43 19 -177 56 -236 66 -19 3 -71 12
-115 20 -44 8 -100 17 -125 20 -40 5 -64 8 -150 20 -14 2 -54 6 -90 10 -36 4
-76 8 -90 10 -14 2 -62 7 -107 10 -45 3 -90 7 -100 9 -10 2 -63 7 -118 10 -55
4 -120 9 -145 11 -25 3 -88 7 -140 10 -52 3 -126 7 -165 10 -38 3 -119 7 -180
10 -60 3 -146 7 -190 10 -44 2 -161 7 -260 10 -99 4 -232 9 -295 12 -126 5
-2097 13 -2102 8z"/>
</g>
</svg>
